<?xml version="1.0" encoding="utf-8"?>
<!-- Generator: Adobe Illustrator 16.0.0, SVG Export Plug-In . SVG Version: 6.00 Build 0)  -->
<!DOCTYPE svg PUBLIC "-//W3C//DTD SVG 1.1//EN" "http://www.w3.org/Graphics/SVG/1.1/DTD/svg11.dtd">
<svg version="1.1" xmlns="http://www.w3.org/2000/svg" xmlns:xlink="http://www.w3.org/1999/xlink" x="0px" y="0px" width="1000px"
	 height="1000px" viewBox="0 0 1000 1000" enable-background="new 0 0 1000 1000" xml:space="preserve">
<g id="Layer_1" display="none">
	<g display="inline">
		<g>
			<polygon points="520.81,890.356 517,888.443 513.19,890.356 130.775,128.64 139.258,124.382 517,876.789 894.742,124.382 
				903.225,128.64 			"/>
		</g>
		<g>
			<polygon points="130.775,880.402 139.258,884.662 315.834,532.948 310.549,522.32 			"/>
			<polygon points="903.225,880.402 723.014,521.448 717.729,532.077 894.742,884.662 			"/>
		</g>
		<g>
			<path d="M704.686,487H328.099l188.293-377.749L704.686,487z M343.435,478h345.916L516.392,131.018L343.435,478z"/>
		</g>
	</g>
</g>
<g id="Layer_2">
	<g>
		<g>
			<path fill="#FFFFFF" d="M157.753,20.703l342.923,841.143L840.914,20.703h99.902l-399.63,958.594h-82.353L59.184,20.703H157.753z"
				/>
		</g>
		<g>
			<polygon fill="#FFFFFF" points="59.184,979 159.086,979 284.999,667.766 237.423,551.626 			"/>
			<polygon fill="#FFFFFF" points="541.166,21 458.813,21 325.422,340.818 371.681,453.789 499.323,137.997 625.95,448.511 
				672.275,335.263 			"/>
			<polygon fill="#FFFFFF" points="940.816,979 760.311,546.348 712.988,662.016 842.246,979 			"/>
		</g>
		<polygon fill="#FFFFFF" points="371.417,454 626,454 626,381 376.665,381 		"/>
	</g>
</g>
</svg>
