<?xml version="1.0" encoding="utf-8"?>
<!-- Generator: Adobe Illustrator 16.0.0, SVG Export Plug-In . SVG Version: 6.00 Build 0)  -->
<!DOCTYPE svg PUBLIC "-//W3C//DTD SVG 1.1//EN" "http://www.w3.org/Graphics/SVG/1.1/DTD/svg11.dtd">
<svg version="1.1" xmlns="http://www.w3.org/2000/svg" xmlns:xlink="http://www.w3.org/1999/xlink" x="0px" y="0px" width="200px"
	 height="200px" viewBox="0 0 200 200" enable-background="new 0 0 200 200" xml:space="preserve">
<g id="Layer_1" display="none">
	<circle display="inline" fill="none" stroke="#0686EF" stroke-width="9" stroke-miterlimit="10" cx="100" cy="100" r="68.324"/>
	<circle display="inline" fill="none" stroke="#2CAAFF" stroke-width="9" stroke-miterlimit="10" cx="100" cy="100" r="57.852"/>
	<circle display="inline" fill="none" stroke="#2CAAFF" stroke-width="9" stroke-miterlimit="10" cx="100" cy="100" r="57.852"/>
	
		<text transform="matrix(1 0 0 1 54.0889 104.5938)" display="inline" fill="#2CAAFF" stroke="#2CAAFF" stroke-miterlimit="10" font-family="'FairwaterSansBold'" font-size="17.3677">C L A I R E</text>
	
		<text transform="matrix(1 0 0 1 62.2041 114.1162)" display="inline" fill="#2CAAFF" font-family="'FairwaterSansBold'" font-size="8">VIRTUAL ASSISTANT</text>
</g>
<g id="Layer_2">
	<g>
		<circle fill="#3FC380" cx="100" cy="100" r="72.297"/>
		<g>
			<rect x="61" y="105" transform="matrix(0.708 -0.7062 0.7062 0.708 -68.349 90.695)" fill="#FFFFFF" width="29" height="46"/>
			
				<rect x="55.729" y="112.487" transform="matrix(0.708 -0.7062 0.7062 0.708 -62.1211 76.732)" fill="#3FC380" width="12" height="2"/>
			
				<rect x="63.294" y="111.292" transform="matrix(0.708 -0.7062 0.7062 0.708 -68.0555 89.9899)" fill="#3FC380" width="23" height="32"/>
			
				<rect x="83.418" y="140.451" transform="matrix(0.7079 -0.7063 0.7063 0.7079 -73.9335 104.1105)" fill="#3FC380" width="11.001" height="2.001"/>
		</g>
		<g>
			<path fill="#FFFFFF" d="M150,86c0,6.627-5.373,12-12,12H93c-6.627,0-12-5.373-12-12V68c0-6.627,5.373-12,12-12h45
				c6.627,0,12,5.373,12,12V86z"/>
			<polygon fill="#FFFFFF" points="87.878,91.946 80.378,110.622 95.986,94.311 			"/>
			<circle fill="#3FC380" cx="103.167" cy="75.333" r="4.167"/>
			<circle fill="#3FC380" cx="117.167" cy="75.333" r="4.167"/>
			<circle fill="#3FC380" cx="130.167" cy="75.333" r="4.167"/>
		</g>
		<circle fill="#3FC380" cx="67.5" cy="108" r="0.844"/>
	</g>
</g>
</svg>
